<mxfile host="app.diagrams.net" agent="Mozilla/5.0 (X11; Ubuntu; Linux x86_64; rv:133.0) Gecko/20100101 Firefox/133.0" version="24.9.3" pages="5">
  <diagram name="one-region-setup" id="-qIvXeWcj92Sl1rElBS-">
    <mxGraphModel dx="1392" dy="791" grid="1" gridSize="10" guides="1" tooltips="1" connect="1" arrows="1" fold="1" page="1" pageScale="1" pageWidth="1600" pageHeight="900" math="0" shadow="0">
      <root>
        <mxCell id="0" />
        <mxCell id="1" parent="0" />
        <mxCell id="vRpOMNuOVbyEOwJZ7boe-2" value="" style="rounded=0;whiteSpace=wrap;html=1;strokeWidth=3;fillColor=#E6E6E6;" vertex="1" parent="1">
          <mxGeometry x="560" y="120" width="360" height="400" as="geometry" />
        </mxCell>
        <mxCell id="vRpOMNuOVbyEOwJZ7boe-3" value="Amazon Web Services" style="text;html=1;align=center;verticalAlign=middle;whiteSpace=wrap;rounded=0;fontSize=16;" vertex="1" parent="1">
          <mxGeometry x="560" y="140" width="180" height="40" as="geometry" />
        </mxCell>
        <mxCell id="vRpOMNuOVbyEOwJZ7boe-4" value="Internet Gateway" style="text;html=1;align=center;verticalAlign=middle;whiteSpace=wrap;rounded=0;fontSize=16;fillColor=#999999;" vertex="1" parent="1">
          <mxGeometry x="760" y="140" width="160" height="40" as="geometry" />
        </mxCell>
        <mxCell id="vRpOMNuOVbyEOwJZ7boe-5" value="Internet" style="ellipse;shape=cloud;whiteSpace=wrap;html=1;fontSize=16;strokeWidth=3;" vertex="1" parent="1">
          <mxGeometry x="1000" y="120" width="120" height="80" as="geometry" />
        </mxCell>
        <mxCell id="vRpOMNuOVbyEOwJZ7boe-6" value="" style="endArrow=none;html=1;rounded=0;strokeWidth=3;" edge="1" parent="1" source="vRpOMNuOVbyEOwJZ7boe-4" target="vRpOMNuOVbyEOwJZ7boe-5">
          <mxGeometry width="50" height="50" relative="1" as="geometry">
            <mxPoint x="820" y="440" as="sourcePoint" />
            <mxPoint x="870" y="390" as="targetPoint" />
          </mxGeometry>
        </mxCell>
        <mxCell id="vRpOMNuOVbyEOwJZ7boe-7" value="" style="rounded=0;whiteSpace=wrap;html=1;" vertex="1" parent="1">
          <mxGeometry x="600" y="200" width="280" height="300" as="geometry" />
        </mxCell>
        <mxCell id="vRpOMNuOVbyEOwJZ7boe-8" value="VPC" style="text;html=1;align=center;verticalAlign=middle;whiteSpace=wrap;rounded=0;fontSize=16;" vertex="1" parent="1">
          <mxGeometry x="600" y="200" width="70" height="40" as="geometry" />
        </mxCell>
        <mxCell id="vRpOMNuOVbyEOwJZ7boe-17" value="" style="rounded=0;whiteSpace=wrap;html=1;strokeWidth=3;dashed=1;fillColor=none;" vertex="1" parent="1">
          <mxGeometry x="580" y="250" width="320" height="240" as="geometry" />
        </mxCell>
        <mxCell id="vRpOMNuOVbyEOwJZ7boe-10" value="Base system" style="text;html=1;align=center;verticalAlign=middle;whiteSpace=wrap;rounded=0;fontSize=16;fillColor=#999999;" vertex="1" parent="1">
          <mxGeometry x="640" y="270" width="200" height="40" as="geometry" />
        </mxCell>
        <mxCell id="vRpOMNuOVbyEOwJZ7boe-11" value="Foreman Server" style="text;html=1;align=center;verticalAlign=middle;whiteSpace=wrap;rounded=0;fontSize=16;fillColor=#025D8C;fontColor=#FFFFFF;" vertex="1" parent="1">
          <mxGeometry x="640" y="310" width="200" height="40" as="geometry" />
        </mxCell>
        <mxCell id="vRpOMNuOVbyEOwJZ7boe-12" value="Client instances" style="text;html=1;align=center;verticalAlign=middle;whiteSpace=wrap;rounded=0;fontSize=16;fillColor=#999999;" vertex="1" parent="1">
          <mxGeometry x="640" y="390" width="200" height="40" as="geometry" />
        </mxCell>
        <mxCell id="vRpOMNuOVbyEOwJZ7boe-13" value="" style="endArrow=none;html=1;rounded=0;strokeWidth=3;" edge="1" parent="1" source="vRpOMNuOVbyEOwJZ7boe-11" target="vRpOMNuOVbyEOwJZ7boe-12">
          <mxGeometry width="50" height="50" relative="1" as="geometry">
            <mxPoint x="715" y="540" as="sourcePoint" />
            <mxPoint x="765" y="490" as="targetPoint" />
          </mxGeometry>
        </mxCell>
        <mxCell id="vRpOMNuOVbyEOwJZ7boe-18" value="Availability zone" style="text;html=1;align=center;verticalAlign=middle;whiteSpace=wrap;rounded=0;fontSize=16;" vertex="1" parent="1">
          <mxGeometry x="670" y="450" width="140" height="40" as="geometry" />
        </mxCell>
      </root>
    </mxGraphModel>
  </diagram>
  <diagram name="combined-vpn" id="H5sWpF3yzn0e3sA4CWhX">
    <mxGraphModel dx="1392" dy="791" grid="1" gridSize="10" guides="1" tooltips="1" connect="1" arrows="1" fold="1" page="1" pageScale="1" pageWidth="1600" pageHeight="900" math="0" shadow="0">
      <root>
        <mxCell id="-vrk75J3xCTwYzi65BjD-0" />
        <mxCell id="-vrk75J3xCTwYzi65BjD-1" parent="-vrk75J3xCTwYzi65BjD-0" />
        <mxCell id="rn_rK6EGONs9JPvKEgUj-9" value="" style="rounded=0;whiteSpace=wrap;html=1;strokeWidth=3;dashed=1;fillColor=none;" vertex="1" parent="-vrk75J3xCTwYzi65BjD-1">
          <mxGeometry x="1240" y="200" width="320" height="320" as="geometry" />
        </mxCell>
        <mxCell id="-vrk75J3xCTwYzi65BjD-2" value="" style="rounded=0;whiteSpace=wrap;html=1;strokeWidth=3;fillColor=#E6E6E6;" vertex="1" parent="-vrk75J3xCTwYzi65BjD-1">
          <mxGeometry x="560" y="120" width="360" height="440" as="geometry" />
        </mxCell>
        <mxCell id="-vrk75J3xCTwYzi65BjD-3" value="Amazon Web Services" style="text;html=1;align=center;verticalAlign=middle;whiteSpace=wrap;rounded=0;fontSize=16;" vertex="1" parent="-vrk75J3xCTwYzi65BjD-1">
          <mxGeometry x="560" y="140" width="180" height="40" as="geometry" />
        </mxCell>
        <mxCell id="-vrk75J3xCTwYzi65BjD-4" value="Internet Gateway" style="text;html=1;align=center;verticalAlign=middle;whiteSpace=wrap;rounded=0;fontSize=16;fillColor=#999999;" vertex="1" parent="-vrk75J3xCTwYzi65BjD-1">
          <mxGeometry x="760" y="140" width="160" height="40" as="geometry" />
        </mxCell>
        <mxCell id="-vrk75J3xCTwYzi65BjD-5" value="Internet" style="ellipse;shape=cloud;whiteSpace=wrap;html=1;fontSize=16;strokeWidth=3;" vertex="1" parent="-vrk75J3xCTwYzi65BjD-1">
          <mxGeometry x="1000" y="120" width="120" height="80" as="geometry" />
        </mxCell>
        <mxCell id="-vrk75J3xCTwYzi65BjD-6" value="" style="endArrow=none;html=1;rounded=0;strokeWidth=3;" edge="1" parent="-vrk75J3xCTwYzi65BjD-1" source="-vrk75J3xCTwYzi65BjD-4" target="-vrk75J3xCTwYzi65BjD-5">
          <mxGeometry width="50" height="50" relative="1" as="geometry">
            <mxPoint x="820" y="440" as="sourcePoint" />
            <mxPoint x="870" y="390" as="targetPoint" />
          </mxGeometry>
        </mxCell>
        <mxCell id="-vrk75J3xCTwYzi65BjD-7" value="" style="rounded=0;whiteSpace=wrap;html=1;" vertex="1" parent="-vrk75J3xCTwYzi65BjD-1">
          <mxGeometry x="600" y="200" width="280" height="340" as="geometry" />
        </mxCell>
        <mxCell id="-vrk75J3xCTwYzi65BjD-8" value="VPC" style="text;html=1;align=center;verticalAlign=middle;whiteSpace=wrap;rounded=0;fontSize=16;" vertex="1" parent="-vrk75J3xCTwYzi65BjD-1">
          <mxGeometry x="600" y="200" width="70" height="40" as="geometry" />
        </mxCell>
        <mxCell id="-vrk75J3xCTwYzi65BjD-9" value="" style="rounded=0;whiteSpace=wrap;html=1;strokeWidth=3;dashed=1;fillColor=none;" vertex="1" parent="-vrk75J3xCTwYzi65BjD-1">
          <mxGeometry x="580" y="250" width="320" height="270" as="geometry" />
        </mxCell>
        <mxCell id="-vrk75J3xCTwYzi65BjD-10" value="Base system" style="text;html=1;align=center;verticalAlign=middle;whiteSpace=wrap;rounded=0;fontSize=16;fillColor=#999999;" vertex="1" parent="-vrk75J3xCTwYzi65BjD-1">
          <mxGeometry x="640" y="270" width="200" height="40" as="geometry" />
        </mxCell>
        <mxCell id="-vrk75J3xCTwYzi65BjD-11" value="Smart Proxy Server" style="text;html=1;align=center;verticalAlign=middle;whiteSpace=wrap;rounded=0;fontSize=16;fillColor=#025D8C;fontColor=#FFFFFF;" vertex="1" parent="-vrk75J3xCTwYzi65BjD-1">
          <mxGeometry x="640" y="310" width="200" height="40" as="geometry" />
        </mxCell>
        <mxCell id="-vrk75J3xCTwYzi65BjD-12" value="Client instances" style="text;html=1;align=center;verticalAlign=middle;whiteSpace=wrap;rounded=0;fontSize=16;fillColor=#999999;" vertex="1" parent="-vrk75J3xCTwYzi65BjD-1">
          <mxGeometry x="640" y="390" width="200" height="40" as="geometry" />
        </mxCell>
        <mxCell id="-vrk75J3xCTwYzi65BjD-13" value="" style="endArrow=none;html=1;rounded=0;strokeWidth=3;" edge="1" parent="-vrk75J3xCTwYzi65BjD-1" source="-vrk75J3xCTwYzi65BjD-11" target="-vrk75J3xCTwYzi65BjD-12">
          <mxGeometry width="50" height="50" relative="1" as="geometry">
            <mxPoint x="715" y="540" as="sourcePoint" />
            <mxPoint x="765" y="490" as="targetPoint" />
          </mxGeometry>
        </mxCell>
        <mxCell id="-vrk75J3xCTwYzi65BjD-14" value="Availability zone" style="text;html=1;align=center;verticalAlign=middle;whiteSpace=wrap;rounded=0;fontSize=16;" vertex="1" parent="-vrk75J3xCTwYzi65BjD-1">
          <mxGeometry x="670" y="480" width="140" height="40" as="geometry" />
        </mxCell>
        <mxCell id="rn_rK6EGONs9JPvKEgUj-1" value="VPN Gateway" style="text;html=1;align=center;verticalAlign=middle;whiteSpace=wrap;rounded=0;fontSize=16;fillColor=#999999;" vertex="1" parent="-vrk75J3xCTwYzi65BjD-1">
          <mxGeometry x="740" y="450" width="160" height="40" as="geometry" />
        </mxCell>
        <mxCell id="rn_rK6EGONs9JPvKEgUj-2" value="" style="endArrow=none;html=1;rounded=0;strokeWidth=3;" edge="1" parent="-vrk75J3xCTwYzi65BjD-1" source="rn_rK6EGONs9JPvKEgUj-1" target="-vrk75J3xCTwYzi65BjD-11">
          <mxGeometry width="50" height="50" relative="1" as="geometry">
            <mxPoint x="1010" y="390" as="sourcePoint" />
            <mxPoint x="1060" y="340" as="targetPoint" />
            <Array as="points">
              <mxPoint x="610" y="470" />
              <mxPoint x="610" y="330" />
            </Array>
          </mxGeometry>
        </mxCell>
        <mxCell id="rn_rK6EGONs9JPvKEgUj-5" value="&lt;div&gt;VPN&amp;nbsp;&amp;nbsp;&amp;nbsp; &lt;br&gt;&lt;/div&gt;&lt;div&gt;connection&amp;nbsp;&amp;nbsp;&amp;nbsp; &lt;br&gt;&lt;/div&gt;" style="strokeWidth=3;html=1;shape=mxgraph.flowchart.direct_data;whiteSpace=wrap;fontSize=16;align=center;" vertex="1" parent="-vrk75J3xCTwYzi65BjD-1">
          <mxGeometry x="1000" y="430" width="120" height="80" as="geometry" />
        </mxCell>
        <mxCell id="rn_rK6EGONs9JPvKEgUj-6" value="" style="endArrow=none;html=1;rounded=0;strokeWidth=3;" edge="1" parent="-vrk75J3xCTwYzi65BjD-1" source="rn_rK6EGONs9JPvKEgUj-1" target="rn_rK6EGONs9JPvKEgUj-5">
          <mxGeometry width="50" height="50" relative="1" as="geometry">
            <mxPoint x="1020" y="360" as="sourcePoint" />
            <mxPoint x="1100" y="360" as="targetPoint" />
          </mxGeometry>
        </mxCell>
        <mxCell id="rn_rK6EGONs9JPvKEgUj-7" value="VPN Gateway" style="text;html=1;align=center;verticalAlign=middle;whiteSpace=wrap;rounded=0;fontSize=16;fillColor=#999999;" vertex="1" parent="-vrk75J3xCTwYzi65BjD-1">
          <mxGeometry x="1240" y="450" width="160" height="40" as="geometry" />
        </mxCell>
        <mxCell id="rn_rK6EGONs9JPvKEgUj-8" value="" style="endArrow=none;html=1;rounded=0;strokeWidth=3;" edge="1" parent="-vrk75J3xCTwYzi65BjD-1" source="rn_rK6EGONs9JPvKEgUj-5" target="rn_rK6EGONs9JPvKEgUj-7">
          <mxGeometry width="50" height="50" relative="1" as="geometry">
            <mxPoint x="1190" y="580" as="sourcePoint" />
            <mxPoint x="1290" y="580" as="targetPoint" />
          </mxGeometry>
        </mxCell>
        <mxCell id="rn_rK6EGONs9JPvKEgUj-10" value="On-premise data center" style="text;html=1;align=center;verticalAlign=middle;whiteSpace=wrap;rounded=0;fontSize=16;" vertex="1" parent="-vrk75J3xCTwYzi65BjD-1">
          <mxGeometry x="1240" y="200" width="190" height="40" as="geometry" />
        </mxCell>
        <mxCell id="rn_rK6EGONs9JPvKEgUj-11" value="Foreman Server" style="text;html=1;align=center;verticalAlign=middle;whiteSpace=wrap;rounded=0;fontSize=16;fillColor=#025D8C;fontColor=#FFFFFF;" vertex="1" parent="-vrk75J3xCTwYzi65BjD-1">
          <mxGeometry x="1280" y="310" width="200" height="40" as="geometry" />
        </mxCell>
        <mxCell id="rn_rK6EGONs9JPvKEgUj-13" value="" style="endArrow=none;html=1;rounded=0;strokeWidth=3;" edge="1" parent="-vrk75J3xCTwYzi65BjD-1" source="rn_rK6EGONs9JPvKEgUj-7" target="rn_rK6EGONs9JPvKEgUj-11">
          <mxGeometry width="50" height="50" relative="1" as="geometry">
            <mxPoint x="1130" y="360" as="sourcePoint" />
            <mxPoint x="1190" y="369.5" as="targetPoint" />
            <Array as="points">
              <mxPoint x="1540" y="470" />
              <mxPoint x="1540" y="330" />
            </Array>
          </mxGeometry>
        </mxCell>
      </root>
    </mxGraphModel>
  </diagram>
  <diagram name="combined-direct" id="Zyo8bkqEDrRcDH7jlCZs">
    <mxGraphModel dx="1392" dy="791" grid="1" gridSize="10" guides="1" tooltips="1" connect="1" arrows="1" fold="1" page="1" pageScale="1" pageWidth="1600" pageHeight="900" math="0" shadow="0">
      <root>
        <mxCell id="ORBsI6CLmnRbFKpDIdWP-0" />
        <mxCell id="ORBsI6CLmnRbFKpDIdWP-1" parent="ORBsI6CLmnRbFKpDIdWP-0" />
        <mxCell id="ORBsI6CLmnRbFKpDIdWP-2" value="" style="rounded=0;whiteSpace=wrap;html=1;strokeWidth=3;dashed=1;fillColor=none;" vertex="1" parent="ORBsI6CLmnRbFKpDIdWP-1">
          <mxGeometry x="1240" y="200" width="320" height="320" as="geometry" />
        </mxCell>
        <mxCell id="ORBsI6CLmnRbFKpDIdWP-3" value="" style="rounded=0;whiteSpace=wrap;html=1;strokeWidth=3;fillColor=#E6E6E6;" vertex="1" parent="ORBsI6CLmnRbFKpDIdWP-1">
          <mxGeometry x="560" y="120" width="360" height="440" as="geometry" />
        </mxCell>
        <mxCell id="ORBsI6CLmnRbFKpDIdWP-4" value="Amazon Web Services" style="text;html=1;align=center;verticalAlign=middle;whiteSpace=wrap;rounded=0;fontSize=16;" vertex="1" parent="ORBsI6CLmnRbFKpDIdWP-1">
          <mxGeometry x="560" y="140" width="180" height="40" as="geometry" />
        </mxCell>
        <mxCell id="ORBsI6CLmnRbFKpDIdWP-6" value="Internet" style="ellipse;shape=cloud;whiteSpace=wrap;html=1;fontSize=16;strokeWidth=3;" vertex="1" parent="ORBsI6CLmnRbFKpDIdWP-1">
          <mxGeometry x="1010" y="430" width="120" height="80" as="geometry" />
        </mxCell>
        <mxCell id="ORBsI6CLmnRbFKpDIdWP-8" value="" style="rounded=0;whiteSpace=wrap;html=1;" vertex="1" parent="ORBsI6CLmnRbFKpDIdWP-1">
          <mxGeometry x="600" y="200" width="280" height="340" as="geometry" />
        </mxCell>
        <mxCell id="ORBsI6CLmnRbFKpDIdWP-9" value="VPC" style="text;html=1;align=center;verticalAlign=middle;whiteSpace=wrap;rounded=0;fontSize=16;" vertex="1" parent="ORBsI6CLmnRbFKpDIdWP-1">
          <mxGeometry x="600" y="200" width="70" height="40" as="geometry" />
        </mxCell>
        <mxCell id="ORBsI6CLmnRbFKpDIdWP-10" value="" style="rounded=0;whiteSpace=wrap;html=1;strokeWidth=3;dashed=1;fillColor=none;" vertex="1" parent="ORBsI6CLmnRbFKpDIdWP-1">
          <mxGeometry x="580" y="250" width="320" height="270" as="geometry" />
        </mxCell>
        <mxCell id="ORBsI6CLmnRbFKpDIdWP-11" value="Base system" style="text;html=1;align=center;verticalAlign=middle;whiteSpace=wrap;rounded=0;fontSize=16;fillColor=#999999;" vertex="1" parent="ORBsI6CLmnRbFKpDIdWP-1">
          <mxGeometry x="640" y="270" width="200" height="40" as="geometry" />
        </mxCell>
        <mxCell id="ORBsI6CLmnRbFKpDIdWP-12" value="Smart Proxy Server" style="text;html=1;align=center;verticalAlign=middle;whiteSpace=wrap;rounded=0;fontSize=16;fillColor=#025D8C;fontColor=#FFFFFF;" vertex="1" parent="ORBsI6CLmnRbFKpDIdWP-1">
          <mxGeometry x="640" y="310" width="200" height="40" as="geometry" />
        </mxCell>
        <mxCell id="ORBsI6CLmnRbFKpDIdWP-13" value="Client instances" style="text;html=1;align=center;verticalAlign=middle;whiteSpace=wrap;rounded=0;fontSize=16;fillColor=#999999;" vertex="1" parent="ORBsI6CLmnRbFKpDIdWP-1">
          <mxGeometry x="640" y="390" width="200" height="40" as="geometry" />
        </mxCell>
        <mxCell id="ORBsI6CLmnRbFKpDIdWP-14" value="" style="endArrow=none;html=1;rounded=0;strokeWidth=3;" edge="1" parent="ORBsI6CLmnRbFKpDIdWP-1" source="ORBsI6CLmnRbFKpDIdWP-12" target="ORBsI6CLmnRbFKpDIdWP-13">
          <mxGeometry width="50" height="50" relative="1" as="geometry">
            <mxPoint x="715" y="540" as="sourcePoint" />
            <mxPoint x="765" y="490" as="targetPoint" />
          </mxGeometry>
        </mxCell>
        <mxCell id="ORBsI6CLmnRbFKpDIdWP-15" value="Availability zone" style="text;html=1;align=center;verticalAlign=middle;whiteSpace=wrap;rounded=0;fontSize=16;" vertex="1" parent="ORBsI6CLmnRbFKpDIdWP-1">
          <mxGeometry x="670" y="480" width="140" height="40" as="geometry" />
        </mxCell>
        <mxCell id="ORBsI6CLmnRbFKpDIdWP-16" value="Internet Gateway" style="text;html=1;align=center;verticalAlign=middle;whiteSpace=wrap;rounded=0;fontSize=16;fillColor=#999999;" vertex="1" parent="ORBsI6CLmnRbFKpDIdWP-1">
          <mxGeometry x="740" y="450" width="160" height="40" as="geometry" />
        </mxCell>
        <mxCell id="ORBsI6CLmnRbFKpDIdWP-17" value="" style="endArrow=none;html=1;rounded=0;strokeWidth=3;" edge="1" parent="ORBsI6CLmnRbFKpDIdWP-1" source="ORBsI6CLmnRbFKpDIdWP-16" target="ORBsI6CLmnRbFKpDIdWP-12">
          <mxGeometry width="50" height="50" relative="1" as="geometry">
            <mxPoint x="1010" y="390" as="sourcePoint" />
            <mxPoint x="1060" y="340" as="targetPoint" />
            <Array as="points">
              <mxPoint x="610" y="470" />
              <mxPoint x="610" y="330" />
            </Array>
          </mxGeometry>
        </mxCell>
        <mxCell id="ORBsI6CLmnRbFKpDIdWP-19" value="" style="endArrow=none;html=1;rounded=0;strokeWidth=3;" edge="1" parent="ORBsI6CLmnRbFKpDIdWP-1" source="ORBsI6CLmnRbFKpDIdWP-16" target="ORBsI6CLmnRbFKpDIdWP-6">
          <mxGeometry width="50" height="50" relative="1" as="geometry">
            <mxPoint x="1020" y="360" as="sourcePoint" />
            <mxPoint x="1000" y="470" as="targetPoint" />
          </mxGeometry>
        </mxCell>
        <mxCell id="ORBsI6CLmnRbFKpDIdWP-20" value="Gateway" style="text;html=1;align=center;verticalAlign=middle;whiteSpace=wrap;rounded=0;fontSize=16;fillColor=#999999;" vertex="1" parent="ORBsI6CLmnRbFKpDIdWP-1">
          <mxGeometry x="1240" y="450" width="160" height="40" as="geometry" />
        </mxCell>
        <mxCell id="ORBsI6CLmnRbFKpDIdWP-21" value="" style="endArrow=none;html=1;rounded=0;strokeWidth=3;" edge="1" parent="ORBsI6CLmnRbFKpDIdWP-1" source="ORBsI6CLmnRbFKpDIdWP-6" target="ORBsI6CLmnRbFKpDIdWP-20">
          <mxGeometry width="50" height="50" relative="1" as="geometry">
            <mxPoint x="1120" y="470" as="sourcePoint" />
            <mxPoint x="1290" y="580" as="targetPoint" />
          </mxGeometry>
        </mxCell>
        <mxCell id="ORBsI6CLmnRbFKpDIdWP-22" value="On-premise data center" style="text;html=1;align=center;verticalAlign=middle;whiteSpace=wrap;rounded=0;fontSize=16;" vertex="1" parent="ORBsI6CLmnRbFKpDIdWP-1">
          <mxGeometry x="1240" y="200" width="190" height="40" as="geometry" />
        </mxCell>
        <mxCell id="ORBsI6CLmnRbFKpDIdWP-23" value="Foreman Server" style="text;html=1;align=center;verticalAlign=middle;whiteSpace=wrap;rounded=0;fontSize=16;fillColor=#025D8C;fontColor=#FFFFFF;" vertex="1" parent="ORBsI6CLmnRbFKpDIdWP-1">
          <mxGeometry x="1280" y="310" width="200" height="40" as="geometry" />
        </mxCell>
        <mxCell id="ORBsI6CLmnRbFKpDIdWP-24" value="" style="endArrow=none;html=1;rounded=0;strokeWidth=3;" edge="1" parent="ORBsI6CLmnRbFKpDIdWP-1" source="ORBsI6CLmnRbFKpDIdWP-20" target="ORBsI6CLmnRbFKpDIdWP-23">
          <mxGeometry width="50" height="50" relative="1" as="geometry">
            <mxPoint x="1130" y="360" as="sourcePoint" />
            <mxPoint x="1190" y="369.5" as="targetPoint" />
            <Array as="points">
              <mxPoint x="1540" y="470" />
              <mxPoint x="1540" y="330" />
            </Array>
          </mxGeometry>
        </mxCell>
        <mxCell id="YCTQ_hbs4NJrymDIlq0y-0" value="Elastic IP" style="text;html=1;align=center;verticalAlign=middle;whiteSpace=wrap;rounded=0;fontSize=16;fillColor=#D4D4D4;" vertex="1" parent="ORBsI6CLmnRbFKpDIdWP-1">
          <mxGeometry x="670" y="450" width="80" height="40" as="geometry" />
        </mxCell>
      </root>
    </mxGraphModel>
  </diagram>
  <diagram name="multi-region-vpn" id="DqWj-3HSRIwk1ARBQE6g">
    <mxGraphModel dx="1392" dy="791" grid="1" gridSize="10" guides="1" tooltips="1" connect="1" arrows="1" fold="1" page="1" pageScale="1" pageWidth="1600" pageHeight="900" math="0" shadow="0">
      <root>
        <mxCell id="TolvmqvoN9jyUIUcFrw0-0" />
        <mxCell id="TolvmqvoN9jyUIUcFrw0-1" parent="TolvmqvoN9jyUIUcFrw0-0" />
        <mxCell id="TolvmqvoN9jyUIUcFrw0-3" value="" style="rounded=0;whiteSpace=wrap;html=1;strokeWidth=3;fillColor=#E6E6E6;" vertex="1" parent="TolvmqvoN9jyUIUcFrw0-1">
          <mxGeometry x="560" y="120" width="1040" height="520" as="geometry" />
        </mxCell>
        <mxCell id="TolvmqvoN9jyUIUcFrw0-4" value="Amazon Web Services" style="text;html=1;align=center;verticalAlign=middle;whiteSpace=wrap;rounded=0;fontSize=16;" vertex="1" parent="TolvmqvoN9jyUIUcFrw0-1">
          <mxGeometry x="560" y="140" width="180" height="40" as="geometry" />
        </mxCell>
        <mxCell id="TolvmqvoN9jyUIUcFrw0-6" value="" style="rounded=0;whiteSpace=wrap;html=1;" vertex="1" parent="TolvmqvoN9jyUIUcFrw0-1">
          <mxGeometry x="600" y="200" width="280" height="420" as="geometry" />
        </mxCell>
        <mxCell id="TolvmqvoN9jyUIUcFrw0-7" value="VPC" style="text;html=1;align=center;verticalAlign=middle;whiteSpace=wrap;rounded=0;fontSize=16;" vertex="1" parent="TolvmqvoN9jyUIUcFrw0-1">
          <mxGeometry x="600" y="200" width="70" height="40" as="geometry" />
        </mxCell>
        <mxCell id="TolvmqvoN9jyUIUcFrw0-8" value="" style="rounded=0;whiteSpace=wrap;html=1;strokeWidth=3;dashed=1;fillColor=none;" vertex="1" parent="TolvmqvoN9jyUIUcFrw0-1">
          <mxGeometry x="580" y="250" width="320" height="350" as="geometry" />
        </mxCell>
        <mxCell id="TolvmqvoN9jyUIUcFrw0-9" value="Base system" style="text;html=1;align=center;verticalAlign=middle;whiteSpace=wrap;rounded=0;fontSize=16;fillColor=#999999;" vertex="1" parent="TolvmqvoN9jyUIUcFrw0-1">
          <mxGeometry x="640" y="270" width="200" height="40" as="geometry" />
        </mxCell>
        <mxCell id="TolvmqvoN9jyUIUcFrw0-10" value="Foreman Server" style="text;html=1;align=center;verticalAlign=middle;whiteSpace=wrap;rounded=0;fontSize=16;fillColor=#025D8C;fontColor=#FFFFFF;" vertex="1" parent="TolvmqvoN9jyUIUcFrw0-1">
          <mxGeometry x="640" y="310" width="200" height="40" as="geometry" />
        </mxCell>
        <mxCell id="TolvmqvoN9jyUIUcFrw0-11" value="Client instances" style="text;html=1;align=center;verticalAlign=middle;whiteSpace=wrap;rounded=0;fontSize=16;fillColor=#999999;" vertex="1" parent="TolvmqvoN9jyUIUcFrw0-1">
          <mxGeometry x="640" y="390" width="200" height="40" as="geometry" />
        </mxCell>
        <mxCell id="TolvmqvoN9jyUIUcFrw0-12" value="" style="endArrow=none;html=1;rounded=0;strokeWidth=3;" edge="1" parent="TolvmqvoN9jyUIUcFrw0-1" source="TolvmqvoN9jyUIUcFrw0-10" target="TolvmqvoN9jyUIUcFrw0-11">
          <mxGeometry width="50" height="50" relative="1" as="geometry">
            <mxPoint x="715" y="540" as="sourcePoint" />
            <mxPoint x="765" y="490" as="targetPoint" />
          </mxGeometry>
        </mxCell>
        <mxCell id="TolvmqvoN9jyUIUcFrw0-13" value="Availability zone" style="text;html=1;align=center;verticalAlign=middle;whiteSpace=wrap;rounded=0;fontSize=16;" vertex="1" parent="TolvmqvoN9jyUIUcFrw0-1">
          <mxGeometry x="670" y="560" width="140" height="40" as="geometry" />
        </mxCell>
        <mxCell id="TolvmqvoN9jyUIUcFrw0-14" value="Internet Gateway" style="text;html=1;align=center;verticalAlign=middle;whiteSpace=wrap;rounded=0;fontSize=16;fillColor=#999999;" vertex="1" parent="TolvmqvoN9jyUIUcFrw0-1">
          <mxGeometry x="740" y="520" width="160" height="40" as="geometry" />
        </mxCell>
        <mxCell id="TolvmqvoN9jyUIUcFrw0-15" value="" style="endArrow=none;html=1;rounded=0;strokeWidth=3;" edge="1" parent="TolvmqvoN9jyUIUcFrw0-1" source="TolvmqvoN9jyUIUcFrw0-14" target="JQJXQ3lm07hnshbMROqu-1">
          <mxGeometry width="50" height="50" relative="1" as="geometry">
            <mxPoint x="1010" y="390" as="sourcePoint" />
            <mxPoint x="1060" y="340" as="targetPoint" />
            <Array as="points">
              <mxPoint x="610" y="540" />
              <mxPoint x="610" y="480" />
            </Array>
          </mxGeometry>
        </mxCell>
        <mxCell id="TolvmqvoN9jyUIUcFrw0-16" value="" style="endArrow=none;html=1;rounded=0;strokeWidth=3;" edge="1" parent="TolvmqvoN9jyUIUcFrw0-1" source="TolvmqvoN9jyUIUcFrw0-14" target="JQJXQ3lm07hnshbMROqu-0">
          <mxGeometry width="50" height="50" relative="1" as="geometry">
            <mxPoint x="1020" y="430" as="sourcePoint" />
            <mxPoint x="1010" y="540" as="targetPoint" />
          </mxGeometry>
        </mxCell>
        <mxCell id="TolvmqvoN9jyUIUcFrw0-18" value="" style="endArrow=none;html=1;rounded=0;strokeWidth=3;" edge="1" parent="TolvmqvoN9jyUIUcFrw0-1" source="JQJXQ3lm07hnshbMROqu-0" target="dAvm17gKS332kQ8Rldlx-10">
          <mxGeometry width="50" height="50" relative="1" as="geometry">
            <mxPoint x="1130" y="540" as="sourcePoint" />
            <mxPoint x="1240" y="540" as="targetPoint" />
          </mxGeometry>
        </mxCell>
        <mxCell id="TolvmqvoN9jyUIUcFrw0-22" value="Elastic IP" style="text;html=1;align=center;verticalAlign=middle;whiteSpace=wrap;rounded=0;fontSize=16;fillColor=#D4D4D4;" vertex="1" parent="TolvmqvoN9jyUIUcFrw0-1">
          <mxGeometry x="670" y="520" width="80" height="40" as="geometry" />
        </mxCell>
        <mxCell id="dAvm17gKS332kQ8Rldlx-2" value="" style="rounded=0;whiteSpace=wrap;html=1;" vertex="1" parent="TolvmqvoN9jyUIUcFrw0-1">
          <mxGeometry x="1280" y="200" width="280" height="420" as="geometry" />
        </mxCell>
        <mxCell id="dAvm17gKS332kQ8Rldlx-3" value="VPC" style="text;html=1;align=center;verticalAlign=middle;whiteSpace=wrap;rounded=0;fontSize=16;" vertex="1" parent="TolvmqvoN9jyUIUcFrw0-1">
          <mxGeometry x="1280" y="200" width="70" height="40" as="geometry" />
        </mxCell>
        <mxCell id="dAvm17gKS332kQ8Rldlx-4" value="" style="rounded=0;whiteSpace=wrap;html=1;strokeWidth=3;dashed=1;fillColor=none;" vertex="1" parent="TolvmqvoN9jyUIUcFrw0-1">
          <mxGeometry x="1260" y="250" width="320" height="350" as="geometry" />
        </mxCell>
        <mxCell id="dAvm17gKS332kQ8Rldlx-5" value="Base system" style="text;html=1;align=center;verticalAlign=middle;whiteSpace=wrap;rounded=0;fontSize=16;fillColor=#999999;" vertex="1" parent="TolvmqvoN9jyUIUcFrw0-1">
          <mxGeometry x="1320" y="270" width="200" height="40" as="geometry" />
        </mxCell>
        <mxCell id="dAvm17gKS332kQ8Rldlx-6" value="Smart Proxy Server" style="text;html=1;align=center;verticalAlign=middle;whiteSpace=wrap;rounded=0;fontSize=16;fillColor=#025D8C;fontColor=#FFFFFF;" vertex="1" parent="TolvmqvoN9jyUIUcFrw0-1">
          <mxGeometry x="1320" y="310" width="200" height="40" as="geometry" />
        </mxCell>
        <mxCell id="dAvm17gKS332kQ8Rldlx-7" value="Client instances" style="text;html=1;align=center;verticalAlign=middle;whiteSpace=wrap;rounded=0;fontSize=16;fillColor=#999999;" vertex="1" parent="TolvmqvoN9jyUIUcFrw0-1">
          <mxGeometry x="1320" y="390" width="200" height="40" as="geometry" />
        </mxCell>
        <mxCell id="dAvm17gKS332kQ8Rldlx-8" value="" style="endArrow=none;html=1;rounded=0;strokeWidth=3;" edge="1" parent="TolvmqvoN9jyUIUcFrw0-1" source="dAvm17gKS332kQ8Rldlx-6" target="dAvm17gKS332kQ8Rldlx-7">
          <mxGeometry width="50" height="50" relative="1" as="geometry">
            <mxPoint x="1395" y="540" as="sourcePoint" />
            <mxPoint x="1445" y="490" as="targetPoint" />
          </mxGeometry>
        </mxCell>
        <mxCell id="dAvm17gKS332kQ8Rldlx-9" value="Availability zone" style="text;html=1;align=center;verticalAlign=middle;whiteSpace=wrap;rounded=0;fontSize=16;" vertex="1" parent="TolvmqvoN9jyUIUcFrw0-1">
          <mxGeometry x="1350" y="560" width="140" height="40" as="geometry" />
        </mxCell>
        <mxCell id="dAvm17gKS332kQ8Rldlx-10" value="Internet Gateway" style="text;html=1;align=center;verticalAlign=middle;whiteSpace=wrap;rounded=0;fontSize=16;fillColor=#999999;" vertex="1" parent="TolvmqvoN9jyUIUcFrw0-1">
          <mxGeometry x="1260" y="520" width="160" height="40" as="geometry" />
        </mxCell>
        <mxCell id="dAvm17gKS332kQ8Rldlx-12" value="Elastic IP" style="text;html=1;align=center;verticalAlign=middle;whiteSpace=wrap;rounded=0;fontSize=16;fillColor=#D4D4D4;" vertex="1" parent="TolvmqvoN9jyUIUcFrw0-1">
          <mxGeometry x="1420" y="520" width="80" height="40" as="geometry" />
        </mxCell>
        <mxCell id="JQJXQ3lm07hnshbMROqu-0" value="&lt;div&gt;VPN&amp;nbsp;&amp;nbsp;&amp;nbsp; &lt;br&gt;&lt;/div&gt;&lt;div&gt;connection&amp;nbsp;&amp;nbsp;&amp;nbsp; &lt;br&gt;&lt;/div&gt;" style="strokeWidth=3;html=1;shape=mxgraph.flowchart.direct_data;whiteSpace=wrap;fontSize=16;align=center;" vertex="1" parent="TolvmqvoN9jyUIUcFrw0-1">
          <mxGeometry x="1010" y="500" width="120" height="80" as="geometry" />
        </mxCell>
        <mxCell id="JQJXQ3lm07hnshbMROqu-1" value="VPN instance" style="text;html=1;align=center;verticalAlign=middle;whiteSpace=wrap;rounded=0;fontSize=16;fillColor=#D4D4D4;" vertex="1" parent="TolvmqvoN9jyUIUcFrw0-1">
          <mxGeometry x="640" y="460" width="200" height="40" as="geometry" />
        </mxCell>
        <mxCell id="JQJXQ3lm07hnshbMROqu-2" value="VPN instance" style="text;html=1;align=center;verticalAlign=middle;whiteSpace=wrap;rounded=0;fontSize=16;fillColor=#D4D4D4;" vertex="1" parent="TolvmqvoN9jyUIUcFrw0-1">
          <mxGeometry x="1320" y="460" width="200" height="40" as="geometry" />
        </mxCell>
        <mxCell id="JQJXQ3lm07hnshbMROqu-3" value="" style="endArrow=none;html=1;rounded=0;strokeWidth=3;" edge="1" parent="TolvmqvoN9jyUIUcFrw0-1" source="JQJXQ3lm07hnshbMROqu-2" target="dAvm17gKS332kQ8Rldlx-12">
          <mxGeometry width="50" height="50" relative="1" as="geometry">
            <mxPoint x="1200" y="450" as="sourcePoint" />
            <mxPoint x="1200" y="389" as="targetPoint" />
            <Array as="points">
              <mxPoint x="1550" y="480" />
              <mxPoint x="1550" y="540" />
            </Array>
          </mxGeometry>
        </mxCell>
      </root>
    </mxGraphModel>
  </diagram>
  <diagram name="multi-region-direct" id="wzhGdrqDQarBxIy_hiEG">
    <mxGraphModel dx="1392" dy="791" grid="1" gridSize="10" guides="1" tooltips="1" connect="1" arrows="1" fold="1" page="1" pageScale="1" pageWidth="1600" pageHeight="900" math="0" shadow="0">
      <root>
        <mxCell id="juRiXO3DZ_SH92yOOmoU-0" />
        <mxCell id="juRiXO3DZ_SH92yOOmoU-1" parent="juRiXO3DZ_SH92yOOmoU-0" />
        <mxCell id="juRiXO3DZ_SH92yOOmoU-2" value="" style="rounded=0;whiteSpace=wrap;html=1;strokeWidth=3;fillColor=#E6E6E6;" vertex="1" parent="juRiXO3DZ_SH92yOOmoU-1">
          <mxGeometry x="560" y="160" width="1040" height="480" as="geometry" />
        </mxCell>
        <mxCell id="juRiXO3DZ_SH92yOOmoU-3" value="Amazon Web Services" style="text;html=1;align=center;verticalAlign=middle;whiteSpace=wrap;rounded=0;fontSize=16;" vertex="1" parent="juRiXO3DZ_SH92yOOmoU-1">
          <mxGeometry x="560" y="180" width="180" height="40" as="geometry" />
        </mxCell>
        <mxCell id="juRiXO3DZ_SH92yOOmoU-4" value="" style="rounded=0;whiteSpace=wrap;html=1;" vertex="1" parent="juRiXO3DZ_SH92yOOmoU-1">
          <mxGeometry x="600" y="240" width="280" height="380" as="geometry" />
        </mxCell>
        <mxCell id="juRiXO3DZ_SH92yOOmoU-5" value="VPC" style="text;html=1;align=center;verticalAlign=middle;whiteSpace=wrap;rounded=0;fontSize=16;" vertex="1" parent="juRiXO3DZ_SH92yOOmoU-1">
          <mxGeometry x="600" y="240" width="70" height="40" as="geometry" />
        </mxCell>
        <mxCell id="juRiXO3DZ_SH92yOOmoU-6" value="" style="rounded=0;whiteSpace=wrap;html=1;strokeWidth=3;dashed=1;fillColor=none;" vertex="1" parent="juRiXO3DZ_SH92yOOmoU-1">
          <mxGeometry x="580" y="290" width="320" height="310" as="geometry" />
        </mxCell>
        <mxCell id="juRiXO3DZ_SH92yOOmoU-7" value="Base system" style="text;html=1;align=center;verticalAlign=middle;whiteSpace=wrap;rounded=0;fontSize=16;fillColor=#999999;" vertex="1" parent="juRiXO3DZ_SH92yOOmoU-1">
          <mxGeometry x="640" y="320" width="200" height="40" as="geometry" />
        </mxCell>
        <mxCell id="juRiXO3DZ_SH92yOOmoU-8" value="Foreman Server" style="text;html=1;align=center;verticalAlign=middle;whiteSpace=wrap;rounded=0;fontSize=16;fillColor=#025D8C;fontColor=#FFFFFF;" vertex="1" parent="juRiXO3DZ_SH92yOOmoU-1">
          <mxGeometry x="640" y="360" width="200" height="40" as="geometry" />
        </mxCell>
        <mxCell id="juRiXO3DZ_SH92yOOmoU-9" value="Client instances" style="text;html=1;align=center;verticalAlign=middle;whiteSpace=wrap;rounded=0;fontSize=16;fillColor=#999999;" vertex="1" parent="juRiXO3DZ_SH92yOOmoU-1">
          <mxGeometry x="640" y="440" width="200" height="40" as="geometry" />
        </mxCell>
        <mxCell id="juRiXO3DZ_SH92yOOmoU-10" value="" style="endArrow=none;html=1;rounded=0;strokeWidth=3;" edge="1" parent="juRiXO3DZ_SH92yOOmoU-1" source="juRiXO3DZ_SH92yOOmoU-8" target="juRiXO3DZ_SH92yOOmoU-9">
          <mxGeometry width="50" height="50" relative="1" as="geometry">
            <mxPoint x="715" y="590" as="sourcePoint" />
            <mxPoint x="765" y="540" as="targetPoint" />
          </mxGeometry>
        </mxCell>
        <mxCell id="juRiXO3DZ_SH92yOOmoU-11" value="Availability zone" style="text;html=1;align=center;verticalAlign=middle;whiteSpace=wrap;rounded=0;fontSize=16;" vertex="1" parent="juRiXO3DZ_SH92yOOmoU-1">
          <mxGeometry x="670" y="560" width="140" height="40" as="geometry" />
        </mxCell>
        <mxCell id="juRiXO3DZ_SH92yOOmoU-12" value="Internet Gateway" style="text;html=1;align=center;verticalAlign=middle;whiteSpace=wrap;rounded=0;fontSize=16;fillColor=#999999;" vertex="1" parent="juRiXO3DZ_SH92yOOmoU-1">
          <mxGeometry x="740" y="520" width="160" height="40" as="geometry" />
        </mxCell>
        <mxCell id="juRiXO3DZ_SH92yOOmoU-13" value="" style="endArrow=none;html=1;rounded=0;strokeWidth=3;" edge="1" parent="juRiXO3DZ_SH92yOOmoU-1" source="juRiXO3DZ_SH92yOOmoU-12" target="juRiXO3DZ_SH92yOOmoU-8">
          <mxGeometry width="50" height="50" relative="1" as="geometry">
            <mxPoint x="1010" y="390" as="sourcePoint" />
            <mxPoint x="640" y="480" as="targetPoint" />
            <Array as="points">
              <mxPoint x="610" y="540" />
              <mxPoint x="610" y="380" />
            </Array>
          </mxGeometry>
        </mxCell>
        <mxCell id="juRiXO3DZ_SH92yOOmoU-14" value="" style="endArrow=none;html=1;rounded=0;strokeWidth=3;" edge="1" parent="juRiXO3DZ_SH92yOOmoU-1" source="juRiXO3DZ_SH92yOOmoU-12" target="yDYIVSZq3HlgXXJCYBpu-0">
          <mxGeometry width="50" height="50" relative="1" as="geometry">
            <mxPoint x="1020" y="430" as="sourcePoint" />
            <mxPoint x="1010" y="540" as="targetPoint" />
          </mxGeometry>
        </mxCell>
        <mxCell id="juRiXO3DZ_SH92yOOmoU-15" value="" style="endArrow=none;html=1;rounded=0;strokeWidth=3;" edge="1" parent="juRiXO3DZ_SH92yOOmoU-1" source="yDYIVSZq3HlgXXJCYBpu-0" target="juRiXO3DZ_SH92yOOmoU-25">
          <mxGeometry width="50" height="50" relative="1" as="geometry">
            <mxPoint x="1130" y="540" as="sourcePoint" />
            <mxPoint x="1240" y="540" as="targetPoint" />
          </mxGeometry>
        </mxCell>
        <mxCell id="juRiXO3DZ_SH92yOOmoU-16" value="Elastic IP" style="text;html=1;align=center;verticalAlign=middle;whiteSpace=wrap;rounded=0;fontSize=16;fillColor=#D4D4D4;" vertex="1" parent="juRiXO3DZ_SH92yOOmoU-1">
          <mxGeometry x="670" y="520" width="80" height="40" as="geometry" />
        </mxCell>
        <mxCell id="juRiXO3DZ_SH92yOOmoU-17" value="" style="rounded=0;whiteSpace=wrap;html=1;" vertex="1" parent="juRiXO3DZ_SH92yOOmoU-1">
          <mxGeometry x="1280" y="240" width="280" height="380" as="geometry" />
        </mxCell>
        <mxCell id="juRiXO3DZ_SH92yOOmoU-18" value="VPC" style="text;html=1;align=center;verticalAlign=middle;whiteSpace=wrap;rounded=0;fontSize=16;" vertex="1" parent="juRiXO3DZ_SH92yOOmoU-1">
          <mxGeometry x="1280" y="240" width="70" height="40" as="geometry" />
        </mxCell>
        <mxCell id="juRiXO3DZ_SH92yOOmoU-19" value="" style="rounded=0;whiteSpace=wrap;html=1;strokeWidth=3;dashed=1;fillColor=none;" vertex="1" parent="juRiXO3DZ_SH92yOOmoU-1">
          <mxGeometry x="1260" y="290" width="320" height="310" as="geometry" />
        </mxCell>
        <mxCell id="juRiXO3DZ_SH92yOOmoU-20" value="Base system" style="text;html=1;align=center;verticalAlign=middle;whiteSpace=wrap;rounded=0;fontSize=16;fillColor=#999999;" vertex="1" parent="juRiXO3DZ_SH92yOOmoU-1">
          <mxGeometry x="1320" y="320" width="200" height="40" as="geometry" />
        </mxCell>
        <mxCell id="juRiXO3DZ_SH92yOOmoU-21" value="Foreman Server" style="text;html=1;align=center;verticalAlign=middle;whiteSpace=wrap;rounded=0;fontSize=16;fillColor=#025D8C;fontColor=#FFFFFF;" vertex="1" parent="juRiXO3DZ_SH92yOOmoU-1">
          <mxGeometry x="1320" y="360" width="200" height="40" as="geometry" />
        </mxCell>
        <mxCell id="juRiXO3DZ_SH92yOOmoU-22" value="Client instances" style="text;html=1;align=center;verticalAlign=middle;whiteSpace=wrap;rounded=0;fontSize=16;fillColor=#999999;" vertex="1" parent="juRiXO3DZ_SH92yOOmoU-1">
          <mxGeometry x="1320" y="440" width="200" height="40" as="geometry" />
        </mxCell>
        <mxCell id="juRiXO3DZ_SH92yOOmoU-23" value="" style="endArrow=none;html=1;rounded=0;strokeWidth=3;" edge="1" parent="juRiXO3DZ_SH92yOOmoU-1" source="juRiXO3DZ_SH92yOOmoU-21" target="juRiXO3DZ_SH92yOOmoU-22">
          <mxGeometry width="50" height="50" relative="1" as="geometry">
            <mxPoint x="1395" y="590" as="sourcePoint" />
            <mxPoint x="1445" y="540" as="targetPoint" />
          </mxGeometry>
        </mxCell>
        <mxCell id="juRiXO3DZ_SH92yOOmoU-24" value="Availability zone" style="text;html=1;align=center;verticalAlign=middle;whiteSpace=wrap;rounded=0;fontSize=16;" vertex="1" parent="juRiXO3DZ_SH92yOOmoU-1">
          <mxGeometry x="1350" y="560" width="140" height="40" as="geometry" />
        </mxCell>
        <mxCell id="juRiXO3DZ_SH92yOOmoU-25" value="Internet Gateway" style="text;html=1;align=center;verticalAlign=middle;whiteSpace=wrap;rounded=0;fontSize=16;fillColor=#999999;" vertex="1" parent="juRiXO3DZ_SH92yOOmoU-1">
          <mxGeometry x="1260" y="520" width="160" height="40" as="geometry" />
        </mxCell>
        <mxCell id="juRiXO3DZ_SH92yOOmoU-26" value="Elastic IP" style="text;html=1;align=center;verticalAlign=middle;whiteSpace=wrap;rounded=0;fontSize=16;fillColor=#D4D4D4;" vertex="1" parent="juRiXO3DZ_SH92yOOmoU-1">
          <mxGeometry x="1420" y="520" width="80" height="40" as="geometry" />
        </mxCell>
        <mxCell id="juRiXO3DZ_SH92yOOmoU-30" value="" style="endArrow=none;html=1;rounded=0;strokeWidth=3;" edge="1" parent="juRiXO3DZ_SH92yOOmoU-1" source="juRiXO3DZ_SH92yOOmoU-21" target="juRiXO3DZ_SH92yOOmoU-26">
          <mxGeometry width="50" height="50" relative="1" as="geometry">
            <mxPoint x="1520" y="480" as="sourcePoint" />
            <mxPoint x="1200" y="389" as="targetPoint" />
            <Array as="points">
              <mxPoint x="1550" y="380" />
              <mxPoint x="1550" y="540" />
            </Array>
          </mxGeometry>
        </mxCell>
        <mxCell id="yDYIVSZq3HlgXXJCYBpu-0" value="Internet" style="ellipse;shape=cloud;whiteSpace=wrap;html=1;fontSize=16;strokeWidth=3;" vertex="1" parent="juRiXO3DZ_SH92yOOmoU-1">
          <mxGeometry x="1010" y="500" width="120" height="80" as="geometry" />
        </mxCell>
      </root>
    </mxGraphModel>
  </diagram>
</mxfile>
